# xmcd
#
# Track frame offsets:
#	150
#	22489
#	46770
#	60761
#	79132
#	90389
#	111061
#	135837
#	166848
#	184092
#	204282
#	221878
#	231115
#
# Disc length: 3281
#
# Revision: 1
# Processed by: cddbd v1.5.1PL0 Copyright (c) Steve Scherf et al.
# Submitted via: CDex 1.51
# Normalized: r0:DSETVAR1
#
DISCID=a00ccf0d
DTITLE=Various Artist - The Rapture - Your Are Here CD2
DYEAR=1900
DGENRE=Post Punk
TTITLE0=Manhead - B.S.W.D.
TTITLE1=Talking Heads - Once In A Lifetime
TTITLE2=Erland Oye - Sheltered Life (Instrumental)
TTITLE3=Blackstrobe - Paris Acit City
TTITLE4=Dance Reaction - Disco Train
TTITLE5=DJ Armand and Quizz - Omaha
TTITLE6=Max Pask - Stupido
TTITLE7=Why Sheep - Earthworm (Recloose Remix)
TTITLE8=Tiefschwarz - Nix
TTITLE9=DJ Gregory - Attend 2
TTITLE10=Daniel Wang - Warped
TTITLE11=Iz and Diz - Uuuhh (Rapture Dodgy Mix Edit)
TTITLE12=The Rapture - Sister Saviour (DFA Vocal Mix)
EXTD=
EXTT0=
EXTT1=
EXTT2=
EXTT3=
EXTT4=
EXTT5=
EXTT6=
EXTT7=
EXTT8=
EXTT9=
EXTT10=
EXTT11=
EXTT12=
PLAYORDER=
